<svg width="168" height="126" viewBox="0 0 168 126" fill="none" xmlns="http://www.w3.org/2000/svg">
<path d="M63.4414 17H60.8662L55.3994 11.0498H55.3291V17H53.3604V4.31738H55.3291V9.99512H55.3994L60.5674 4.31738H62.9229L57.3418 10.3643L63.4414 17ZM69.9268 17V4.31738H75.1211C76.2402 4.31738 77.1396 4.60449 77.8193 5.17871C78.499 5.75879 78.8389 6.52637 78.8389 7.48145C78.8389 8.15527 78.6221 8.75586 78.1885 9.2832C77.7549 9.81641 77.2217 10.1357 76.5889 10.2412V10.3115C77.4502 10.4111 78.1445 10.7422 78.6719 11.3047C79.2051 11.873 79.4717 12.5762 79.4717 13.4141C79.4717 14.5332 79.0879 15.4092 78.3203 16.042C77.5527 16.6807 76.4922 17 75.1387 17H69.9268ZM71.8955 9.71387H74.2246C75.0801 9.71387 75.7363 9.54395 76.1934 9.2041C76.6504 8.86426 76.8789 8.38086 76.8789 7.75391C76.8789 7.16797 76.6855 6.7168 76.2988 6.40039C75.9062 6.08398 75.3525 5.92578 74.6377 5.92578H71.8955V9.71387ZM74.7432 15.3916C76.5537 15.3916 77.459 14.6914 77.459 13.291C77.459 11.9082 76.5156 11.2168 74.6289 11.2168H71.8955V15.3916H74.7432ZM94.9307 7.45508H94.7988L88.3389 17H86.4229V4.31738H88.374V13.8887H88.5059L94.9658 4.31738H96.8818V17H94.9307V7.45508ZM106.777 9.69629H108.482C109.209 9.69629 109.798 9.50293 110.249 9.11621C110.706 8.72949 110.935 8.23145 110.935 7.62207C110.935 7.0127 110.724 6.53223 110.302 6.18066C109.874 5.8291 109.297 5.65332 108.57 5.65332C107.832 5.65332 107.234 5.83496 106.777 6.19824C106.326 6.55566 106.071 7.05078 106.013 7.68359H104.149C104.214 6.54688 104.647 5.65039 105.45 4.99414C106.253 4.33789 107.313 4.00977 108.632 4.00977C109.88 4.00977 110.899 4.32617 111.69 4.95898C112.481 5.59766 112.877 6.41797 112.877 7.41992C112.877 8.12891 112.66 8.75293 112.227 9.29199C111.787 9.8252 111.216 10.1768 110.513 10.3467V10.417C111.362 10.5225 112.033 10.8564 112.525 11.4189C113.018 11.9814 113.264 12.6934 113.264 13.5547C113.264 14.6211 112.818 15.5146 111.928 16.2354C111.037 16.9502 109.927 17.3076 108.597 17.3076C107.22 17.3076 106.095 16.9678 105.222 16.2881C104.349 15.6084 103.883 14.709 103.824 13.5898H105.723C105.781 14.2109 106.071 14.709 106.593 15.084C107.108 15.4531 107.773 15.6377 108.588 15.6377C109.379 15.6377 110.021 15.4355 110.513 15.0312C110.999 14.627 111.242 14.1025 111.242 13.458C111.242 12.7959 111.002 12.2773 110.521 11.9023C110.047 11.5273 109.385 11.3398 108.535 11.3398H106.777V9.69629Z" fill="white"/>
<path d="M5.75903 40.912L5.81003 64.474C5.81003 64.202 5.94603 63.964 6.21803 63.76C6.49003 63.556 6.98303 63.454 7.69703 63.454C8.34303 63.454 8.85303 63.352 9.22703 63.148C9.60103 62.944 9.87303 62.451 10.043 61.669C10.247 60.853 10.366 59.646 10.4 58.048C10.468 56.45 10.502 54.257 10.502 51.469C10.502 48.715 10.383 46.624 10.145 45.196C9.90703 43.768 9.56703 42.731 9.12503 42.085C8.71703 41.439 8.20703 41.082 7.59503 41.014C7.01703 40.946 6.40503 40.912 5.75903 40.912ZM5.75903 40.3C7.39103 40.3 8.76803 40.368 9.89003 40.504C11.012 40.606 11.913 41.014 12.593 41.728C13.273 42.408 13.749 43.513 14.021 45.043C14.293 46.539 14.429 48.681 14.429 51.469C14.429 54.563 14.361 56.96 14.225 58.66C14.123 60.36 13.851 61.618 13.409 62.434C12.967 63.25 12.27 63.743 11.318 63.913C10.4 64.083 9.12503 64.168 7.49303 64.168C6.88103 64.168 6.43903 64.338 6.16703 64.678C5.92903 65.018 5.81003 65.528 5.81003 66.208V75.388H6.83003V76H0.353027V75.388H1.62803V40.912H0.353027V40.3H5.75903Z" fill="white"/>
<path d="M25.5048 66.718L21.8328 42.799L18.4158 68.299C18.4158 67.789 18.7558 67.398 19.4358 67.126C20.1498 66.854 20.9148 66.718 21.7308 66.718H25.5048ZM25.6068 67.228H21.5268C21.2208 67.228 20.8808 67.262 20.5068 67.33C20.1668 67.364 19.8268 67.466 19.4868 67.636C19.1808 67.772 18.9088 67.976 18.6708 68.248C18.4668 68.486 18.3478 68.809 18.3138 69.217L17.4978 75.49H18.3648V76C18.2628 76 18.0588 76 17.7528 76C17.4808 76 17.2088 76 16.9368 76C16.6648 76 16.4268 76 16.2228 76C15.9848 76 15.8658 75.983 15.8658 75.949V75.49H16.6818C16.6818 75.456 16.7498 74.946 16.8858 73.96C17.0218 72.94 17.1918 71.631 17.3958 70.033C17.6338 68.401 17.8888 66.548 18.1608 64.474C18.4328 62.4 18.7048 60.292 18.9768 58.15C19.6228 53.084 20.3538 47.338 21.1698 40.912H19.8948V40.3H25.4028L31.7778 75.49H32.7978V76H25.5048V75.49H26.7798L25.6068 67.228Z" fill="white"/>
<path d="M41.9352 75.388C42.5812 75.388 43.0912 75.133 43.4652 74.623C43.8732 74.079 44.1792 73.331 44.3832 72.379C44.5872 71.427 44.7062 70.288 44.7402 68.962C44.8082 67.636 44.8422 66.174 44.8422 64.576C44.8082 60.768 44.4852 58.048 43.8732 56.416C43.2952 54.784 42.3432 53.968 41.0172 53.968V53.254C41.6632 53.254 42.2072 53.067 42.6492 52.693C43.1252 52.319 43.4992 51.826 43.7712 51.214C44.0772 50.568 44.2812 49.837 44.3832 49.021C44.4852 48.205 44.5362 47.355 44.5362 46.471C44.5362 45.757 44.5192 45.06 44.4852 44.38C44.4852 43.7 44.4002 43.105 44.2302 42.595C44.0942 42.051 43.8392 41.626 43.4652 41.32C43.1252 41.014 42.6322 40.878 41.9862 40.912C40.8642 40.912 40.0652 40.98 39.5892 41.116C39.1472 41.252 38.8922 41.439 38.8242 41.677C38.7562 41.881 38.7902 42.136 38.9262 42.442C39.0962 42.748 39.2322 43.071 39.3342 43.411C39.4362 43.717 39.4362 44.057 39.3342 44.431C39.2662 44.771 38.9602 45.111 38.4162 45.451C37.9402 45.757 37.4812 45.842 37.0392 45.706C36.6312 45.536 36.3082 45.264 36.0702 44.89C35.8662 44.516 35.7812 44.074 35.8152 43.564C35.8492 43.02 36.0702 42.51 36.4782 42.034C36.9202 41.558 37.5832 41.15 38.4672 40.81C39.3512 40.47 40.5242 40.3 41.9862 40.3C43.4142 40.3 44.5192 40.538 45.3012 41.014C46.1172 41.49 46.6952 42.068 47.0352 42.748C47.4092 43.394 47.6132 44.074 47.6472 44.788C47.7152 45.502 47.7492 46.063 47.7492 46.471C47.8172 51.163 45.9982 53.526 42.2922 53.56C43.2442 53.526 44.1452 53.713 44.9952 54.121C45.8792 54.495 46.6442 55.124 47.2902 56.008C47.9702 56.858 48.4972 57.997 48.8712 59.425C49.2452 60.819 49.4322 62.536 49.4322 64.576C49.4322 66.004 49.3472 67.415 49.1772 68.809C49.0072 70.169 48.6502 71.376 48.1062 72.43C47.5962 73.484 46.8482 74.351 45.8622 75.031C44.8762 75.677 43.5672 76 41.9352 76C40.4732 76 39.3002 75.83 38.4162 75.49C37.5322 75.15 36.8692 74.742 36.4272 74.266C36.0192 73.79 35.7982 73.297 35.7642 72.787C35.7302 72.243 35.8152 71.784 36.0192 71.41C36.2572 71.036 36.5802 70.781 36.9882 70.645C37.3962 70.509 37.8552 70.577 38.3652 70.849C38.9432 71.189 39.2662 71.546 39.3342 71.92C39.4022 72.26 39.3852 72.6 39.2832 72.94C39.1812 73.246 39.0452 73.552 38.8752 73.858C38.7392 74.164 38.7052 74.436 38.7732 74.674C38.8412 74.878 39.0962 75.048 39.5382 75.184C40.0142 75.32 40.8132 75.388 41.9352 75.388Z" fill="white"/>
<path d="M58.7524 75.286C59.5344 75.286 60.2144 75.235 60.7924 75.133C61.4044 74.997 61.8974 74.555 62.2714 73.807C62.6794 73.059 62.9854 71.869 63.1894 70.237C63.3934 68.605 63.4954 66.276 63.4954 63.25C63.4954 60.972 63.4614 59.136 63.3934 57.742C63.3254 56.314 63.1724 55.209 62.9344 54.427C62.6964 53.611 62.3734 53.067 61.9654 52.795C61.5574 52.489 61.0304 52.336 60.3844 52.336C59.7724 52.336 59.3304 52.506 59.0584 52.846C58.8204 53.186 58.7014 53.696 58.7014 54.376L58.7524 75.286ZM53.2954 40.3H58.7014C60.3334 40.3 61.6254 40.47 62.5774 40.81C63.5634 41.116 64.3114 41.558 64.8214 42.136C65.3314 42.68 65.6544 43.309 65.7904 44.023C65.9604 44.737 66.0454 45.468 66.0454 46.216C66.0454 47.1 66.0284 47.899 65.9944 48.613C65.9604 49.293 65.8244 49.888 65.5864 50.398C65.3484 50.874 64.9914 51.248 64.5154 51.52C64.0394 51.792 63.3594 51.928 62.4754 51.928C63.6994 51.928 64.6514 52.217 65.3314 52.795C66.0114 53.339 66.5044 54.104 66.8104 55.09C67.1164 56.076 67.2864 57.266 67.3204 58.66C67.3884 60.054 67.4224 61.584 67.4224 63.25C67.4224 66.412 67.2694 68.86 66.9634 70.594C66.6914 72.294 66.2154 73.552 65.5354 74.368C64.8894 75.184 64.0054 75.66 62.8834 75.796C61.7954 75.932 60.4184 76 58.7524 76H53.2954V75.286H54.5704V41.014H53.2954V40.3ZM58.7014 52.591C58.7014 52.319 58.8374 52.081 59.1094 51.877C59.3814 51.673 59.8744 51.571 60.5884 51.571C61.2004 51.571 61.6764 51.537 62.0164 51.469C62.3564 51.401 62.6114 51.231 62.7814 50.959C62.9514 50.653 63.0534 50.211 63.0874 49.633C63.1214 49.055 63.1384 48.256 63.1384 47.236C63.1384 45.672 63.0364 44.482 62.8324 43.666C62.6624 42.816 62.3904 42.204 62.0164 41.83C61.6424 41.422 61.1834 41.184 60.6394 41.116C60.0954 41.048 59.4494 41.014 58.7014 41.014V52.591Z" fill="white"/>
<path d="M83.5731 48.46C83.5731 48.46 83.4541 48.783 83.2161 49.429C83.0121 50.041 82.7401 50.874 82.4001 51.928C82.0941 52.948 81.7201 54.121 81.2781 55.447C80.8701 56.773 80.4451 58.116 80.0031 59.476C78.9491 62.706 77.7591 66.361 76.4331 70.441V75.388H77.4531V76H70.9761V75.388H72.2511V40.912H70.9761V40.3H77.4531V40.912H76.3821L76.4331 68.452C76.4331 68.452 76.5351 68.146 76.7391 67.534C76.9771 66.888 77.2661 66.055 77.6061 65.035C77.9461 63.981 78.3201 62.808 78.7281 61.516C79.1701 60.19 79.6121 58.83 80.0541 57.436C81.1081 54.206 82.2811 50.551 83.5731 46.471V40.912H82.2981V40.3H88.7751V40.912H87.7041L87.7551 75.388H88.7751V76H82.2981V75.388H83.5731V48.46Z" fill="white"/>
<path d="M97.351 75.286C98.133 75.286 98.813 75.235 99.391 75.133C100.003 74.997 100.496 74.555 100.87 73.807C101.278 73.059 101.584 71.869 101.788 70.237C101.992 68.605 102.094 66.276 102.094 63.25C102.094 60.972 102.06 59.136 101.992 57.742C101.924 56.314 101.771 55.209 101.533 54.427C101.295 53.611 100.972 53.067 100.564 52.795C100.156 52.489 99.629 52.336 98.983 52.336C98.371 52.336 97.929 52.506 97.657 52.846C97.419 53.186 97.3 53.696 97.3 54.376L97.351 75.286ZM91.894 40.3H97.3C98.932 40.3 100.224 40.47 101.176 40.81C102.162 41.116 102.91 41.558 103.42 42.136C103.93 42.68 104.253 43.309 104.389 44.023C104.559 44.737 104.644 45.468 104.644 46.216C104.644 47.1 104.627 47.899 104.593 48.613C104.559 49.293 104.423 49.888 104.185 50.398C103.947 50.874 103.59 51.248 103.114 51.52C102.638 51.792 101.958 51.928 101.074 51.928C102.298 51.928 103.25 52.217 103.93 52.795C104.61 53.339 105.103 54.104 105.409 55.09C105.715 56.076 105.885 57.266 105.919 58.66C105.987 60.054 106.021 61.584 106.021 63.25C106.021 66.412 105.868 68.86 105.562 70.594C105.29 72.294 104.814 73.552 104.134 74.368C103.488 75.184 102.604 75.66 101.482 75.796C100.394 75.932 99.017 76 97.351 76H91.894V75.286H93.169V41.014H91.894V40.3ZM97.3 52.591C97.3 52.319 97.436 52.081 97.708 51.877C97.98 51.673 98.473 51.571 99.187 51.571C99.799 51.571 100.275 51.537 100.615 51.469C100.955 51.401 101.21 51.231 101.38 50.959C101.55 50.653 101.652 50.211 101.686 49.633C101.72 49.055 101.737 48.256 101.737 47.236C101.737 45.672 101.635 44.482 101.431 43.666C101.261 42.816 100.989 42.204 100.615 41.83C100.241 41.422 99.782 41.184 99.238 41.116C98.694 41.048 98.048 41.014 97.3 41.014V52.591Z" fill="white"/>
<path d="M118.092 66.718L114.42 42.799L111.003 68.299C111.003 67.789 111.343 67.398 112.023 67.126C112.737 66.854 113.502 66.718 114.318 66.718H118.092ZM118.194 67.228H114.114C113.808 67.228 113.468 67.262 113.094 67.33C112.754 67.364 112.414 67.466 112.074 67.636C111.768 67.772 111.496 67.976 111.258 68.248C111.054 68.486 110.935 68.809 110.901 69.217L110.085 75.49H110.952V76C110.85 76 110.646 76 110.34 76C110.068 76 109.796 76 109.524 76C109.252 76 109.014 76 108.81 76C108.572 76 108.453 75.983 108.453 75.949V75.49H109.269C109.269 75.456 109.337 74.946 109.473 73.96C109.609 72.94 109.779 71.631 109.983 70.033C110.221 68.401 110.476 66.548 110.748 64.474C111.02 62.4 111.292 60.292 111.564 58.15C112.21 53.084 112.941 47.338 113.757 40.912H112.482V40.3H117.99L124.365 75.49H125.385V76H118.092V75.49H119.367L118.194 67.228Z" fill="white"/>
<path d="M140.897 40.3V42.544H140.234V40.912H133.757L133.808 57.589C133.808 57.249 133.944 56.994 134.216 56.824C134.488 56.62 134.981 56.518 135.695 56.518H138.143V55.447H138.806V58.15H138.143V57.181H135.491C134.879 57.181 134.437 57.351 134.165 57.691C133.927 58.031 133.808 58.541 133.808 59.221V75.388H140.234V73.756H140.897V76H128.351V75.388H129.626V40.912H128.351V40.3H140.897Z" fill="white"/>
<path d="M152.41 67.177L145.78 44.788L145.933 75.388H147.106V76H143.791V75.388H145.066V40.912H143.791V40.3H149.197L154.399 58.558L160.315 40.3H164.752V40.912H163.477L163.528 75.388H164.752V76H157.867V75.388H159.346V45.757L152.41 67.177Z" fill="white"/>
<path d="M29.5057 87.3C29.5057 87.3 29.5057 87.81 29.5057 88.83C29.5057 89.816 29.5057 91.125 29.5057 92.757C29.5057 94.389 29.5057 96.259 29.5057 98.367C29.5057 100.441 29.5057 102.566 29.5057 104.742C29.5397 106.918 29.5567 109.06 29.5567 111.168C29.5567 113.242 29.5567 115.112 29.5567 116.778C29.5567 118.41 29.5567 119.753 29.5567 120.807C29.5567 121.827 29.5567 122.354 29.5567 122.388H32.4127V125.142H31.8007V123H13.3897V125.142H12.7777V122.388H15.2257C16.0417 120.892 16.7727 119.09 17.4187 116.982C17.9967 115.214 18.5067 113.038 18.9487 110.454C19.4247 107.836 19.6627 104.827 19.6627 101.427V87.3H29.5057ZM20.3767 87.912V101.376C20.3767 104.776 20.1387 107.785 19.6627 110.403C19.2207 112.987 18.7277 115.18 18.1837 116.982C17.5377 119.09 16.8067 120.892 15.9907 122.388H25.3747V87.912H20.3767Z" fill="white"/>
<path d="M44.0072 113.718L40.3352 89.799L36.9182 115.299C36.9182 114.789 37.2582 114.398 37.9382 114.126C38.6522 113.854 39.4172 113.718 40.2332 113.718H44.0072ZM44.1092 114.228H40.0292C39.7232 114.228 39.3832 114.262 39.0092 114.33C38.6692 114.364 38.3292 114.466 37.9892 114.636C37.6832 114.772 37.4112 114.976 37.1732 115.248C36.9692 115.486 36.8502 115.809 36.8162 116.217L36.0002 122.49H36.8672V123C36.7652 123 36.5612 123 36.2552 123C35.9832 123 35.7112 123 35.4392 123C35.1672 123 34.9292 123 34.7252 123C34.4872 123 34.3682 122.983 34.3682 122.949V122.49H35.1842C35.1842 122.456 35.2522 121.946 35.3882 120.96C35.5242 119.94 35.6942 118.631 35.8982 117.033C36.1362 115.401 36.3912 113.548 36.6632 111.474C36.9352 109.4 37.2072 107.292 37.4792 105.15C38.1252 100.084 38.8562 94.338 39.6722 87.912H38.3972V87.3H43.9052L50.2802 122.49H51.3002V123H44.0072V122.49H45.2822L44.1092 114.228Z" fill="white"/>
<path d="M62.6816 87.3L69.0566 122.49H70.0766V123H62.7836V122.49H64.0586L59.1116 89.799L54.7766 122.49H55.6436V123C55.5416 123 55.3376 123 55.0316 123C54.7596 123 54.4876 123 54.2156 123C53.9436 123 53.7056 123 53.5016 123C53.2636 123 53.1446 122.983 53.1446 122.949V122.49H53.9606C53.9606 122.456 54.0286 121.946 54.1646 120.96C54.3006 119.94 54.4706 118.631 54.6746 117.033C54.9126 115.401 55.1676 113.548 55.4396 111.474C55.7116 109.4 55.9836 107.292 56.2556 105.15C56.9016 100.084 57.6326 94.338 58.4486 87.912H57.1736V87.3H62.6816Z" fill="white"/>
<path d="M78.8155 122.337C79.4615 122.337 80.0735 122.303 80.6515 122.235C81.2635 122.167 81.7735 121.827 82.1815 121.215C82.6235 120.569 82.9635 119.532 83.2015 118.104C83.4395 116.676 83.5585 114.585 83.5585 111.831C83.5585 109.043 83.5245 106.85 83.4565 105.252C83.4225 103.654 83.3035 102.464 83.0995 101.682C82.9295 100.866 82.6575 100.356 82.2835 100.152C81.9095 99.948 81.3995 99.846 80.7535 99.846C80.0395 99.846 79.5465 99.761 79.2745 99.591C79.0025 99.387 78.8665 99.149 78.8665 98.877L78.8155 122.337ZM73.4095 123V122.337H74.6845V87.912H73.4095V87.3H80.0395V87.912H78.8665V97.092C78.8665 97.772 78.9855 98.282 79.2235 98.622C79.4955 98.962 79.9375 99.132 80.5495 99.132C82.1815 99.132 83.4565 99.217 84.3745 99.387C85.3265 99.557 86.0235 100.05 86.4655 100.866C86.9075 101.682 87.1795 102.94 87.2815 104.64C87.4175 106.34 87.4855 108.737 87.4855 111.831C87.4855 114.619 87.3495 116.778 87.0775 118.308C86.8055 119.804 86.3295 120.909 85.6495 121.623C84.9695 122.303 84.0685 122.711 82.9465 122.847C81.8245 122.949 80.4475 123 78.8155 123H73.4095Z" fill="white"/>
<path d="M103.064 106.068H99.3414C99.1374 106.068 98.8484 106.085 98.4744 106.119C98.1344 106.153 97.7944 106.238 97.4544 106.374C97.1144 106.476 96.8254 106.629 96.5874 106.833C96.3494 107.037 96.2304 107.309 96.2304 107.649V122.388H97.2504V123H90.7734V122.388H92.0484V87.912H90.7734V87.3H97.2504V87.912H96.1794L96.2304 106.272C96.2304 106.136 96.3324 106.017 96.5364 105.915C96.7404 105.813 97.0124 105.728 97.3524 105.66C97.6924 105.558 98.0494 105.49 98.4234 105.456C98.7974 105.388 99.1714 105.354 99.5454 105.354H103.064V87.912H101.789V87.3H108.266V87.912H107.195L107.246 122.388H108.266V123H101.789V122.388H103.064V106.068Z" fill="white"/>
<path d="M124.139 95.46C124.139 95.46 124.02 95.783 123.782 96.429C123.578 97.041 123.306 97.874 122.966 98.928C122.66 99.948 122.286 101.121 121.844 102.447C121.436 103.773 121.011 105.116 120.569 106.476C119.515 109.706 118.325 113.361 116.999 117.441V122.388H118.019V123H111.542V122.388H112.817V87.912H111.542V87.3H118.019V87.912H116.948L116.999 115.452C116.999 115.452 117.101 115.146 117.305 114.534C117.543 113.888 117.832 113.055 118.172 112.035C118.512 110.981 118.886 109.808 119.294 108.516C119.736 107.19 120.178 105.83 120.62 104.436C121.674 101.206 122.847 97.551 124.139 93.471V87.912H122.864V87.3H129.341V87.912H128.27L128.321 122.388H129.341V123H122.864V122.388H124.139V95.46Z" fill="white"/>
<path d="M141.537 84.393C142.523 84.325 143.186 84.206 143.526 84.036C143.9 83.866 144.07 83.679 144.036 83.475C144.036 83.271 143.917 83.05 143.679 82.812C143.475 82.54 143.288 82.268 143.118 81.996C142.948 81.69 142.88 81.384 142.914 81.078C142.948 80.772 143.237 80.449 143.781 80.109C144.223 79.837 144.614 79.769 144.954 79.905C145.294 80.041 145.549 80.279 145.719 80.619C145.889 80.959 145.957 81.367 145.923 81.843C145.889 82.319 145.719 82.778 145.413 83.22C145.107 83.628 144.631 83.985 143.985 84.291C143.373 84.597 142.557 84.75 141.537 84.75C140.041 84.75 138.953 84.444 138.273 83.832C137.627 83.186 137.27 82.523 137.202 81.843C137.134 81.163 137.304 80.602 137.712 80.16C138.12 79.718 138.664 79.701 139.344 80.109C139.854 80.449 140.126 80.772 140.16 81.078C140.228 81.384 140.177 81.69 140.007 81.996C139.837 82.268 139.633 82.54 139.395 82.812C139.157 83.05 139.038 83.271 139.038 83.475C139.038 83.679 139.208 83.866 139.548 84.036C139.888 84.206 140.551 84.325 141.537 84.393ZM145.107 95.46C145.107 95.46 144.988 95.783 144.75 96.429C144.546 97.041 144.274 97.874 143.934 98.928C143.628 99.948 143.254 101.121 142.812 102.447C142.404 103.773 141.979 105.116 141.537 106.476C140.483 109.706 139.293 113.361 137.967 117.441V122.388H138.987V123H132.51V122.388H133.785V87.912H132.51V87.3H138.987V87.912H137.916L137.967 115.452C137.967 115.452 138.069 115.146 138.273 114.534C138.511 113.888 138.8 113.055 139.14 112.035C139.48 110.981 139.854 109.808 140.262 108.516C140.704 107.19 141.146 105.83 141.588 104.436C142.642 101.206 143.815 97.551 145.107 93.471V87.912H143.832V87.3H150.309V87.912H149.238L149.289 122.388H150.309V123H143.832V122.388H145.107V95.46Z" fill="white"/>
<line y1="28.5" x2="168" y2="28.5" stroke="white" stroke-opacity="0.31"/>
</svg>
